# xmcd
#
# Track frame offsets: 
#        150
#        18034
#        33232
#        49352
#        71236
#        92132
#        108930
#        117362
#        140154
#        154761
#        165989
#        184777
#        202998
#        221398
#        235406
#        254799
#        272333
#        291543
#
# Disc length: 4142 seconds
#
# Revision: 0
# Processed by: cddbd v1.5.2PL0 Copyright (c) Steve Scherf et al.
# Submitted via: ExactAudioCopy v0.99pb4
#
DISCID=0b102c12
DTITLE=Alicia Keys - Keys To The Top
DYEAR=2008
DGENRE=R&B
TTITLE0=Where Do We Go From Here
TTITLE1=Hurt So Bad Ft J Love
TTITLE2=Waiting For Your Love Ft J Love
TTITLE3=No One
TTITLE4=How To Save Life
TTITLE5=Tender Love
TTITLE6=Freedom
TTITLE7=Sweet Music
TTITLE8=Who's That Girl
TTITLE9=Dragon Days Ft Dirty Happy
TTITLE10=Little Drummer Girl
TTITLE11=Unbreakable
TTITLE12=Fight
TTITLE13=Love Affair
TTITLE14=Can You Get Away Ft 2Pac
TTITLE15=Ghetto Story Ft Baby Cham
TTITLE16=Like You'll Love Again Ft Ludacris
TTITLE17=No One Ft Cassidy
EXTD=
EXTT0=
EXTT1=
EXTT2=
EXTT3=
EXTT4=
EXTT5=
EXTT6=
EXTT7=
EXTT8=
EXTT9=
EXTT10=
EXTT11=
EXTT12=
EXTT13=
EXTT14=
EXTT15=
EXTT16=
EXTT17=
PLAYORDER=
